<svg xmlns="http://www.w3.org/2000/svg" viewBox="-7 0 85 85" xml:space="preserve">
  <style>.st0{fill:#FFFFFF;}</style>
  <path class="st0" d="
    M14.3,7
      c3.7,1.7,6,3.8,6.4,4.2
      c-0.2-1-0.9-5.5-1.3-8.4
      c2.1,1.5,7.1,5,8.7,6.1
      C28.7,6.8,31,0,31,0
      s4.1,6.8,4.9,7.9
      C36.8,7,41.7,1.4,43,0
      c0.2,3.2,0.5,7.8,0.6,8.5
      c0.3-0.3,2.2-3,5.3-5.5
      c-1.4,2.7-2,6.5-2.3,9.6
      c-3.1-0.9-6.4-1.4-9.8-1.4
      c-6.5,0-12.7,1.7-18,4.8
      C17.8,13,16.3,9.4,14.3,7
    M52.4,45.2
      l0-4.7
      c0,0-2.1-0.7-4.3-2.4
      c-4.5,0.7-9.9,5.2-9.9,5.2
      s1.8,3.5,3.8,7.3
      C45.5,51.1,50.7,46.6,52.4,45.2
    M56.9,53.7
      c0,0-0.4-2-1.9-3.8
      L51.5,50
      c0,0-4.7,4.1-7.6,4.2
      c0,0,1.6,3,2.4,4.5
      c1.6-0.3,4.4-1.6,5.5-2.9
      c0,0,0.7,2.4,0.6,5.3
      C53.9,60.2,56.1,57.7,56.9,53.7
    M58.3,38.2
      c-1.8,1.5-3.3,2.3-3.3,2.3
      l0,4.7
      c1.3,1.4,2.5,2.6,3.4,4.7
      C60.3,46.8,59.9,42.1,58.3,38.2
    M58.7,34
      l0.3-2.2
      c0.1-1.2-0.2-3.2-1.9-5.2
      c-2-2.3-7.2-6-9.6-6.9
      c0,0-0.2,2.4-1,3.5
      c-4.9-3.6-7.3-4.4-7.3-4.4
      c-5.4,0.8-8.8,2.9-10.7,4.5
      l1.6,1.4
      c-3.2,1-5.3,3.8-5.3,3.8
      c0,0,2.9,0.5,2.9,0.5
      s-0.3,3.4,3.9,5.5
      c3.6,1.8,8.8-0.4,13.7,1.5
      c-3.2-3.7-5.4-5.4-5.4-5.4
      s-1.3-0.3-2.2-0.3
      c-1.1,0-2.8,0.2-4.6-0.5
      c-0.9-0.3-1.9-1-2.7-1.5
      c0,0,2.2-2.3,5.5-2.9
      c0,0,3,0.8,5.3,2.6
      c1.6-1.5,3.2-1.5,3.2-1.5
      s-1.6,1.5-1.1,3.4
      c2.4,2.1,4.9,5.1,4.9,5.1
      c2.6-1.4,8.2-1.1,9.4,0.2
      c-1.5-1.9-3.6-3.5-5.2-4.9
      c-0.2-0.7-2-3.2-2.3-3.5
      c0,0,1.7,0.5,3.2,1.9
      c0.4-0.6,1.3-1.3,2.4-1.5
      c1.1,1,1.3,2.5,1.3,2.7
      c-0.5,0.6-1,0.9-1,0.9
      L58.7,34
    M61.4,35.7
      c4.2,7.8,5.2,17.2,2.3,26.5
      c-0.2-0.2-2.4-2.7-3.3-3.7
      c-0.6,9.1-3.2,16.2-11,22.2
      c0,0-0.7-2.9-1.2-4.7
      c-12.8,9.5-23.8,5.1-26.9,3.6
      c2.4-11.1,0.5-17.5-1.1-22.3
      c-3.4,5.7-6.9,10-10.4,13
      c-2.4-5.6-2.6-16.1-0.6-22.2
      c-0.6,0.2-4.4,1.4-6.5,2
      c0.8-5.7,4.5-13.2,8.4-17
      C10.6,33,8.6,32.7,7,32.5
      c1-2,3.8-5.7,8.2-9.2
      c-0.1,2.5,0.8,5.4,3.5,6.8
      c-1.8-3.1-2-6.9-0.1-8.9
      c1.8-2,4.9-1.3,6.9,0.2
      c-0.4-1.1-1.2-2.3-2.3-3.1
      c5.4-2.5,12-4,19.4-2.9
      c1.1,1,2.4,2.4,3.1,3.3
      c0-0.6-0.1-1.8-0.3-2.8
      c3,0.7,6.2,1.9,9.5,3.6
      c-5.9-5.9-17.8-7.7-27.7-4.8
      c-2.3,0.7-4.5,1.6-6.6,2.6
      c-2.2,0-3.6,1.4-4.4,2.6
      c-6.4,4.3-11,9.9-13.2,14.6
      c0.5,0.1,2,0.3,3.4,0.5
      C3.5,39.1-0.2,46.8,0,53.8
      c0.6-0.2,4.1-1.3,5.8-1.8
      c-0.9,6.1-0.6,16.4,3.3,22.3
      c5-3.6,7.8-7.3,10.2-10.6
      c0.6,3,1.2,8.4-0.9,17.3
      c1.7,1.3,14.1,7.9,28.2-0.7
      l1.2,4.7
      l1.5-1
      c8.6-5.6,11.8-13.2,13-19.4
      c0.4,0.4,2,2.2,2.5,2.7
      C67,61.4,71.3,47.2,61.4,35.7
  "/>
</svg>
